<?xml version="1.0" encoding="utf-8" ?>
<svg xmlns="http://www.w3.org/2000/svg" xmlns:xlink="http://www.w3.org/1999/xlink" width="49" height="49">
	<path transform="scale(0.0957031 0.0957031)" d="M258.373 437.309Q253.803 437.37 249.235 437.206Q244.668 437.042 240.114 436.654Q235.56 436.266 231.031 435.655Q226.501 435.043 222.007 434.21Q217.514 433.378 213.066 432.325Q208.618 431.272 204.228 430.003Q199.837 428.733 195.515 427.249Q191.192 425.765 186.947 424.071Q182.702 422.376 178.546 420.476Q174.389 418.575 170.331 416.472Q166.273 414.37 162.323 412.07Q158.374 409.771 154.541 407.28Q150.709 404.79 147.004 402.114Q143.299 399.438 139.729 396.584Q136.16 393.729 132.735 390.703Q129.31 387.676 126.038 384.485Q122.766 381.294 119.654 377.947Q116.543 374.599 113.6 371.102Q110.656 367.606 107.888 363.969Q105.12 360.332 102.534 356.564Q99.9481 352.795 97.5502 348.904Q95.1523 345.013 92.9484 341.009Q90.7445 337.005 88.7399 332.898Q86.7353 328.791 84.9349 324.59Q83.1344 320.389 81.5424 316.105Q79.9504 311.821 78.5708 307.463Q77.1911 303.106 76.0271 298.686Q74.8631 294.267 73.9176 289.795Q72.972 285.324 72.2472 280.811Q71.5224 276.298 71.0201 271.756Q70.5178 267.213 70.2392 262.651Q69.9606 258.089 69.9064 253.519Q69.8522 248.949 70.0225 244.382Q70.1927 239.814 70.5871 235.261Q70.9815 230.708 71.599 226.179Q72.2166 221.651 73.0558 217.158Q73.8949 212.665 74.9538 208.219Q76.0126 203.773 77.2885 199.384Q78.5643 194.996 80.0542 190.675Q81.5441 186.354 83.2444 182.112Q84.9447 177.869 86.8513 173.716Q88.7578 169.562 90.8661 165.507Q92.9744 161.452 95.2793 157.505Q97.5842 153.558 100.08 149.729Q102.576 145.901 105.257 142.199Q107.938 138.498 110.797 134.932Q113.657 131.367 116.688 127.946Q119.719 124.526 122.915 121.258Q126.11 117.99 129.462 114.884Q132.814 111.777 136.315 108.838Q139.816 105.9 143.456 103.137Q147.097 100.374 150.869 97.7932Q154.641 95.2124 158.535 92.82Q162.43 90.4275 166.437 88.2292Q170.444 86.0309 174.554 84.0321Q178.664 82.0332 182.867 80.2386Q187.071 78.444 191.357 76.858Q195.644 75.272 200.003 73.8984Q204.362 72.5248 208.783 71.367Q213.204 70.2092 217.677 69.2699Q222.15 68.3306 226.664 67.6121Q231.177 66.8936 235.721 66.3976Q240.264 65.9016 244.827 65.6294Q249.389 65.3571 253.959 65.3093Q258.521 65.2616 263.08 65.4375Q267.639 65.6135 272.184 66.0127Q276.728 66.4119 281.248 67.0335Q285.768 67.655 290.252 68.4974Q294.736 69.3398 299.173 70.401Q303.61 71.4622 307.99 72.7397Q312.37 74.0171 316.682 75.5077Q320.993 76.9983 325.227 78.6986Q329.461 80.3988 333.606 82.3045Q337.751 84.2102 341.798 86.3169Q345.845 88.4235 349.783 90.726Q353.722 93.0285 357.543 95.5214Q361.364 98.0142 365.058 100.691Q368.753 103.369 372.311 106.224Q375.87 109.079 379.284 112.105Q382.698 115.131 385.96 118.321Q389.222 121.51 392.324 124.856Q395.425 128.202 398.359 131.696Q401.293 135.19 404.052 138.823Q406.811 142.457 409.388 146.221Q411.966 149.986 414.356 153.872Q416.746 157.758 418.942 161.757Q421.139 165.756 423.136 169.857Q425.134 173.959 426.929 178.154Q428.723 182.348 430.309 186.626Q431.896 190.903 433.271 195.254Q434.646 199.604 435.806 204.016Q436.966 208.429 437.908 212.892Q438.851 217.356 439.573 221.861Q440.295 226.366 440.796 230.901Q441.297 235.435 441.574 239.989Q441.852 244.543 441.906 249.105Q441.96 253.667 441.791 258.226Q441.621 262.785 441.228 267.331Q440.835 271.876 440.22 276.397Q439.605 280.917 438.769 285.402Q437.933 289.887 436.878 294.326Q435.823 298.765 434.551 303.146Q433.28 307.528 431.795 311.842Q430.311 316.156 428.616 320.392Q426.922 324.628 425.022 328.776Q423.122 332.924 421.021 336.973Q418.92 341.023 416.623 344.965Q414.326 348.907 411.839 352.731Q409.351 356.556 406.679 360.254Q404.007 363.952 401.157 367.514Q398.307 371.077 395.286 374.496Q392.265 377.914 389.079 381.18Q385.894 384.447 382.553 387.553Q379.211 390.659 375.721 393.598Q372.231 396.537 368.602 399.301Q364.972 402.065 361.211 404.648Q357.45 407.23 353.567 409.626Q349.685 412.021 345.689 414.223Q341.693 416.425 337.594 418.429Q333.496 420.432 329.303 422.232Q325.111 424.033 320.836 425.625Q316.561 427.218 312.212 428.599Q307.864 429.98 303.453 431.146Q299.043 432.312 294.58 433.261Q290.117 434.209 285.614 434.938Q281.11 435.666 276.576 436.173Q272.042 436.68 267.488 436.964Q262.935 437.248 258.373 437.309ZM250.977 97.6765Q247.203 97.805 243.439 98.1189Q239.676 98.4327 235.933 98.9311Q232.189 99.4295 228.475 100.111Q224.76 100.793 221.084 101.656Q217.408 102.52 213.778 103.563Q210.148 104.606 206.574 105.826Q203.001 107.046 199.491 108.44Q195.981 109.834 192.544 111.399Q189.107 112.964 185.752 114.696Q182.396 116.428 179.129 118.323Q175.862 120.218 172.693 122.271Q169.523 124.324 166.458 126.53Q163.393 128.736 160.44 131.091Q157.487 133.445 154.654 135.941Q151.82 138.438 149.113 141.07Q146.405 143.703 143.83 146.466Q141.255 149.228 138.819 152.114Q136.383 154.999 134.092 158.001Q131.801 161.003 129.66 164.114Q127.519 167.225 125.533 170.437Q123.548 173.65 121.722 176.956Q119.897 180.262 118.236 183.653Q116.575 187.045 115.083 190.514Q113.591 193.984 112.272 197.522Q110.952 201.06 109.807 204.659Q108.663 208.258 107.697 211.909Q106.731 215.56 105.945 219.253Q105.16 222.947 104.557 226.675Q103.954 230.403 103.534 234.156Q103.115 237.909 102.881 241.679Q102.647 245.448 102.598 249.224Q102.549 253 102.686 256.774Q102.823 260.548 103.145 264.311Q103.467 268.073 103.974 271.816Q104.48 275.558 105.17 279.271Q105.86 282.984 106.731 286.658Q107.603 290.333 108.654 293.96Q109.705 297.587 110.933 301.159Q112.161 304.73 113.562 308.236Q114.964 311.743 116.537 315.176Q118.109 318.61 119.849 321.962Q121.588 325.314 123.49 328.577Q125.392 331.839 127.452 335.004Q129.512 338.169 131.725 341.23Q133.938 344.29 136.298 347.237Q138.659 350.185 141.162 353.013Q143.664 355.841 146.303 358.543Q148.942 361.245 151.71 363.814Q154.478 366.382 157.369 368.812Q160.26 371.242 163.267 373.526Q166.274 375.811 169.389 377.945Q172.505 380.08 175.722 382.058Q178.938 384.037 182.248 385.855Q185.558 387.673 188.954 389.326Q192.349 390.979 195.821 392.464Q199.294 393.948 202.835 395.26Q206.376 396.572 209.978 397.709Q213.579 398.845 217.232 399.803Q220.885 400.761 224.58 401.539Q228.276 402.316 232.005 402.911Q235.734 403.506 239.488 403.917Q243.243 404.328 247.012 404.554Q250.782 404.78 254.558 404.821Q258.334 404.861 262.108 404.716Q265.871 404.571 269.623 404.242Q273.374 403.913 277.105 403.401Q280.836 402.889 284.537 402.194Q288.239 401.5 291.901 400.625Q295.564 399.75 299.18 398.696Q302.795 397.643 306.355 396.413Q309.915 395.184 313.41 393.782Q316.905 392.379 320.327 390.808Q323.749 389.236 327.09 387.498Q330.431 385.76 333.683 383.861Q336.935 381.962 340.09 379.905Q343.245 377.849 346.295 375.64Q349.346 373.432 352.284 371.077Q355.223 368.721 358.042 366.225Q360.862 363.728 363.556 361.097Q366.249 358.465 368.811 355.705Q371.373 352.944 373.796 350.062Q376.219 347.179 378.498 344.181Q380.778 341.183 382.907 338.077Q385.037 334.971 387.012 331.765Q388.986 328.558 390.802 325.258Q392.617 321.959 394.268 318.574Q395.92 315.19 397.403 311.729Q398.887 308.267 400.199 304.737Q401.511 301.207 402.649 297.617Q403.787 294.027 404.747 290.386Q405.708 286.745 406.488 283.061Q407.269 279.377 407.869 275.659Q408.468 271.941 408.884 268.198Q409.301 264.455 409.534 260.696Q409.766 256.938 409.814 253.172Q409.862 249.406 409.726 245.643Q409.59 241.88 409.269 238.127Q408.948 234.375 408.444 230.643Q407.94 226.911 407.253 223.208Q406.567 219.505 405.7 215.841Q404.833 212.176 403.787 208.558Q402.742 204.94 401.52 201.378Q400.299 197.816 398.904 194.317Q397.51 190.819 395.945 187.394Q394.381 183.968 392.65 180.623Q390.92 177.278 389.028 174.022Q387.136 170.766 385.086 167.607Q383.037 164.447 380.835 161.392Q378.633 158.337 376.284 155.393Q373.936 152.45 371.445 149.625Q368.955 146.8 366.329 144.1Q363.704 141.4 360.949 138.833Q358.194 136.265 355.317 133.835Q352.439 131.406 349.446 129.12Q346.453 126.834 343.352 124.698Q340.251 122.562 337.049 120.58Q333.846 118.598 330.551 116.775Q327.255 114.953 323.874 113.294Q320.493 111.635 317.035 110.144Q313.577 108.653 310.05 107.333Q306.523 106.013 302.936 104.867Q299.348 103.722 295.709 102.753Q292.07 101.785 288.387 100.996Q284.705 100.207 280.988 99.5997Q277.272 98.9921 273.53 98.5674Q269.788 98.1427 266.03 97.9019Q262.272 97.6611 258.506 97.6047Q254.741 97.5483 250.977 97.6765Z"/>
	<path transform="scale(0.0957031 0.0957031)" d="M243.033 255.609C242.686 243.598 243.029 231.464 243.029 219.441L243.033 146.879L268.808 146.879L268.808 245.366C270.502 246.585 272.032 248.323 273.515 249.793L309.881 286.365C318.271 294.911 326.524 303.636 335.141 311.952C332.002 314.773 329.051 317.812 326.063 320.792C322.98 323.95 319.75 326.95 316.622 330.062C306.036 318.842 294.886 308.056 284.005 297.118L243.033 255.609Z"/>
</svg>
