<?xml version="1.0" encoding="utf-8" ?>
<svg xmlns="http://www.w3.org/2000/svg" xmlns:xlink="http://www.w3.org/1999/xlink" width="49" height="49">
	<defs>
		<linearGradient id="gradient_0" gradientUnits="userSpaceOnUse" x1="394.66293" y1="408.92139" x2="117.96493" y2="99.517097">
			<stop offset="0" stop-color="#8BADF6"/>
			<stop offset="1" stop-color="#D0F3F4"/>
		</linearGradient>
	</defs>
	<path fill="url(#gradient_0)" transform="scale(0.0957031 0.0957031)" d="M252.488 45.6913Q257.605 45.6007 262.719 45.7614Q267.834 45.9222 272.935 46.3339Q278.036 46.7456 283.11 47.4072Q288.185 48.0689 293.22 48.979Q298.256 49.889 303.241 51.0453Q308.226 52.2015 313.148 53.6011Q318.071 55.0008 322.918 56.6404Q327.766 58.28 332.527 60.1557Q337.288 62.0314 341.952 64.1387Q346.615 66.2459 351.169 68.5796Q355.724 70.9133 360.158 73.4678Q364.592 76.0223 368.895 78.7914Q373.199 81.5606 377.361 84.5377Q381.523 87.5148 385.534 90.6928Q389.545 93.8707 393.395 97.2417Q397.245 100.613 400.925 104.169Q404.605 107.725 408.106 111.457Q411.607 115.19 414.921 119.09Q418.234 122.989 421.352 127.047Q424.47 131.105 427.385 135.311Q430.299 139.517 433.004 143.861Q435.709 148.205 438.197 152.677Q440.686 157.149 442.951 161.737Q445.217 166.326 447.255 171.02Q449.292 175.714 451.097 180.503Q452.901 185.291 454.469 190.163Q456.036 195.034 457.362 199.977Q458.689 204.919 459.771 209.921Q460.853 214.923 461.688 219.972Q462.523 225.02 463.109 230.104Q463.695 235.188 464.031 240.294Q464.366 245.4 464.451 250.517Q464.536 255.634 464.369 260.748Q464.202 265.863 463.785 270.963Q463.367 276.064 462.699 281.137Q462.032 286.211 461.116 291.246Q460.2 296.28 459.038 301.264Q457.876 306.248 456.47 311.168Q455.065 316.089 453.42 320.935Q451.774 325.78 449.893 330.539Q448.012 335.298 445.899 339.959Q443.787 344.62 441.448 349.172Q439.109 353.723 436.549 358.154Q433.989 362.586 431.215 366.886Q428.441 371.186 425.459 375.345Q422.477 379.503 419.294 383.511Q416.112 387.518 412.736 391.364Q409.361 395.21 405.8 398.886Q402.24 402.562 398.503 406.059Q394.767 409.555 390.863 412.864Q386.96 416.173 382.898 419.286Q378.837 422.399 374.627 425.309Q370.418 428.219 366.07 430.919Q361.723 433.619 357.248 436.102Q352.774 438.585 348.183 440.845Q343.592 443.105 338.895 445.137Q334.198 447.17 329.408 448.969Q324.617 450.768 319.744 452.329Q314.87 453.891 309.926 455.211Q304.982 456.532 299.979 457.608Q294.976 458.684 289.927 459.513Q284.877 460.342 279.793 460.923Q274.708 461.503 269.602 461.833Q264.495 462.162 259.378 462.241Q254.269 462.32 249.162 462.147Q244.055 461.975 238.963 461.553Q233.871 461.131 228.805 460.459Q223.74 459.788 218.713 458.869Q213.687 457.95 208.711 456.786Q203.736 455.621 198.824 454.215Q193.912 452.808 189.074 451.162Q184.237 449.516 179.486 447.634Q174.735 445.753 170.082 443.641Q165.429 441.529 160.886 439.192Q156.342 436.854 151.918 434.297Q147.495 431.739 143.202 428.968Q138.909 426.197 134.757 423.218Q130.605 420.24 126.604 417.061Q122.603 413.883 118.763 410.512Q114.923 407.141 111.252 403.586Q107.582 400.031 104.09 396.3Q100.599 392.57 97.2943 388.672Q93.9898 384.775 90.8804 380.72Q87.771 376.665 84.8641 372.463Q81.9572 368.26 79.2599 363.921Q76.5626 359.581 74.0813 355.114Q71.6001 350.647 69.3408 346.064Q67.0815 341.481 65.0496 336.792Q63.0178 332.104 61.2183 327.322Q59.4187 322.539 57.8559 317.674Q56.293 312.809 54.9705 307.874Q53.6481 302.938 52.5692 297.943Q51.4903 292.949 50.6576 287.908Q49.825 282.866 49.2405 277.79Q48.656 272.714 48.3211 267.615Q47.9862 262.516 47.9017 257.407Q47.8172 252.298 47.9833 247.191Q48.1494 242.084 48.5657 236.991Q48.9819 231.898 49.6474 226.832Q50.3129 221.766 51.226 216.738Q52.1391 211.711 53.2977 206.734Q54.4562 201.757 55.8573 196.844Q57.2584 191.93 58.8988 187.09Q60.5392 182.251 62.4149 177.498Q64.2905 172.745 66.397 168.09Q68.5035 163.434 70.8357 158.888Q73.1679 154.341 75.7202 149.915Q78.2725 145.488 81.0388 141.192Q83.8051 136.896 86.7787 132.74Q89.7523 128.585 92.9261 124.58Q96.0999 120.576 99.4662 116.732Q102.832 112.887 106.383 109.213Q109.934 105.538 113.661 102.042Q117.387 98.5465 121.281 95.2374Q125.174 91.9284 129.226 88.8142Q133.277 85.7001 137.476 82.7883Q141.675 79.8765 146.011 77.1742Q150.348 74.4718 154.812 71.9853Q159.276 69.4988 163.856 67.2341Q168.437 64.9695 173.123 62.9321Q177.809 60.8948 182.589 59.0897Q187.369 57.2846 192.232 55.716Q197.096 54.1474 202.03 52.8192Q206.964 51.491 211.957 50.4062Q216.95 49.3215 221.991 48.4829Q227.031 47.6444 232.107 47.0539Q237.182 46.4635 242.281 46.1226Q247.379 45.7818 252.488 45.6913Z"/>
	<defs>
		<linearGradient id="gradient_1" gradientUnits="userSpaceOnUse" x1="237.90009" y1="261.77518" x2="310.24612" y2="228.91934">
			<stop offset="0" stop-color="#99EBF4"/>
			<stop offset="1" stop-color="#5398F9"/>
		</linearGradient>
	</defs>
	<path fill="url(#gradient_1)" transform="scale(0.0957031 0.0957031)" d="M274.033 184.058C274.367 189.482 274.043 195.146 274.039 200.59L274.023 234.479C274.02 252.344 271.95 253.401 285.152 266.427L324.055 305.272C328.048 309.232 332.916 312.958 336.08 317.61C347.973 335.097 324.006 354.378 308.829 340.786C306.141 338.378 303.787 335.587 301.213 333.057L266.612 298.58C264.195 296.169 261.891 293.641 259.441 291.264C236.125 268.646 238.453 267.557 238.466 238.401L238.464 164.82C238.464 158.839 238.051 152.506 238.994 146.596C240.91 134.602 257.763 127.61 266.92 136.275C278.011 141.692 274.031 173.803 274.033 184.058Z"/>
	<path fill="#7394F7" transform="scale(0.0957031 0.0957031)" d="M266.92 136.275C278.011 141.692 274.031 173.803 274.033 184.058C272.88 180.286 273.927 175.164 274.006 171.227C274.291 157.164 273.413 154.749 269.567 141.319C270.53 137.785 267.417 138.581 266.92 136.275Z"/>
</svg>
